<svg xmlns="http://www.w3.org/2000/svg" width="1686" height="570" fill="#fff"><path d="M129.129 16.89a1.728 1.728 0 1 0 0 3.454v-3.453ZM1494.83 553.255a1.726 1.726 0 1 0 0-3.454v3.454ZM129.129 20.344h4.337v-3.453h-4.337v3.453Zm13.01 0h8.673v-3.453h-8.673v3.453Zm17.346 0h8.674v-3.453h-8.674v3.453Zm17.347 0h8.673v-3.453h-8.673v3.453Zm17.346 0h8.673v-3.453h-8.673v3.453Zm17.347 0h8.673v-3.453h-8.673v3.453Zm17.346 0h8.674v-3.453h-8.674v3.453Zm17.346 0h8.674v-3.453h-8.674v3.453Zm17.348 0h8.672v-3.453h-8.672v3.453Zm17.346 0h8.674v-3.453h-8.674v3.453Zm17.346 0h8.674v-3.453h-8.674v3.453Zm17.348 0h8.672v-3.453h-8.672v3.453Zm17.346 0h8.672v-3.453h-8.672v3.453Zm17.346 0h8.674v-3.453h-8.674v3.453Zm17.346 0h8.674v-3.453h-8.674v3.453Zm17.347 0h8.673v-3.453h-8.673v3.453Zm17.347 0h8.673v-3.453h-8.673v3.453Zm17.346 0h8.673v-3.453h-8.673v3.453Zm17.347 0h8.673v-3.453h-8.673v3.453Zm17.346 0h8.673v-3.453h-8.673v3.453Zm17.346 0h8.674v-3.453h-8.674v3.453Zm17.347 0h8.673v-3.453h-8.673v3.453Zm17.347 0h8.672v-3.453h-8.672v3.453Zm17.346 0h8.674v-3.453h-8.674v3.453Zm17.346 0h8.674v-3.453h-8.674v3.453Zm17.348 0h8.672v-3.453h-8.672v3.453Zm17.346 0h8.674v-3.453h-8.674v3.453Zm17.346 0h8.674v-3.453h-8.674v3.453Zm17.346 0h8.674v-3.453h-8.674v3.453Zm17.348 0h8.672v-3.453h-8.672v3.453Zm17.346 0h8.673v-3.453h-8.673v3.453Zm17.346 0h8.674v-3.453h-8.674v3.453Zm17.347 0h8.673v-3.453h-8.673v3.453Zm17.346 0h8.674v-3.453h-8.674v3.453Zm17.346 0h8.674v-3.453h-8.674v3.453Zm17.347 0h8.673v-3.453h-8.673v3.453Zm17.347 0h8.672v-3.453h-8.672v3.453Zm17.346 0h8.674v-3.453h-8.674v3.453Zm17.346 0h8.674v-3.453h-8.674v3.453Zm17.348 0h8.672v-3.453h-8.672v3.453Zm17.346 0h8.674v-3.453h-8.674v3.453Zm17.346 0h8.674v-3.453h-8.674v3.453Zm17.348 0h8.672v-3.453h-8.672v3.453Zm17.346 0h8.673v-3.453h-8.673v3.453Zm17.346 0h8.673v-3.453h-8.673v3.453Zm17.347 0h8.673v-3.453h-8.673v3.453Zm17.346 0h8.674v-3.453h-8.674v3.453Zm17.346 0h8.674v-3.453h-8.674v3.453Zm17.348 0h8.674v-3.453h-8.674v3.453Zm17.346 0h8.674v-3.453h-8.674v3.453Zm17.347 0h8.671v-3.453h-8.671v3.453Zm17.351 0h8.67v-3.453h-8.67v3.453Zm17.34 0h8.68v-3.453h-8.68v3.453Zm17.35 0h8.67v-3.453h-8.67v3.453Zm17.35 0h8.67v-3.453h-8.67v3.453Zm17.34 0h8.68v-3.453h-8.68v3.453Zm17.35 0h8.67v-3.453h-8.67v3.453Zm17.34 0h8.68v-3.453h-8.68v3.453Zm17.35 0h8.67v-3.453h-8.67v3.453Zm17.35 0h8.67v-3.453h-8.67v3.453Zm17.34 0h8.68v-3.453h-8.68v3.453Zm17.35 0h8.67v-3.453h-8.67v3.453Zm17.35 0h8.67v-3.453h-8.67v3.453Zm17.34 0h8.68v-3.453h-8.68v3.453Zm17.35 0h8.67v-3.453h-8.67v3.453Zm17.35 0h8.67v-3.453h-8.67v3.453Zm17.34 0h8.68v-3.453h-8.68v3.453Zm17.35 0h8.67v-3.453h-8.67v3.453Zm17.35 0h8.68v-3.453h-8.68v3.453Zm17.34 0h8.67v-3.453h-8.67v3.453Zm17.35 0h8.68v-3.453h-8.68v3.453Zm17.34 0h8.68v-3.453h-8.68v3.453Zm17.35 0h8.68v-3.453h-8.68v3.453Zm17.36 0h8.66v-3.453h-8.66v3.453Zm17.34 0h8.67v-3.453h-8.67v3.453Zm17.35 0h8.66v-3.453h-8.66v3.453Zm17.34 0h8.67v-3.453h-8.67v3.453Zm17.35 0h8.66v-3.453h-8.66v3.453Zm17.34 0h8.68v-3.453h-8.68v3.453Zm17.35 0h8.68v-3.453h-8.68v3.453Zm17.34 0h8.68v-3.453h-8.68v3.453Zm17.36 0h8.67v-3.453h-8.67v3.453Zm17.33 0h4.34v-3.453h-4.34v3.453Zm4.34 0c1.44 0 2.87.023 4.3.07l.11-3.453c-1.46-.046-2.93-.07-4.41-.07v3.453Zm12.85.621c2.87.279 5.7.65 8.5 1.109l.57-3.408c-2.89-.472-5.8-.852-8.73-1.138l-.34 3.438Zm16.92 2.772c2.79.648 5.55 1.387 8.27 2.21l1.01-3.304c-2.8-.847-5.64-1.604-8.51-2.27l-.77 3.364Zm16.39 4.964c2.68 1.009 5.32 2.104 7.92 3.281l1.43-3.145a133.486 133.486 0 0 0-8.13-3.369l-1.22 3.233Zm15.6 7.075c2.53 1.35 5.01 2.782 7.42 4.29l1.83-2.931a139.683 139.683 0 0 0-7.61-4.404l-1.64 3.044Zm14.55 9.055a139.4 139.4 0 0 1 6.8 5.22l2.19-2.669c-2.27-1.859-4.59-3.645-6.97-5.356l-2.02 2.805Zm13.23 10.871c2.1 1.953 4.12 3.973 6.07 6.058l2.52-2.362a142.88 142.88 0 0 0-6.21-6.216l-2.38 2.52ZM1652.8 68.2c1.82 2.205 3.57 4.47 5.23 6.792l2.81-2.014c-1.71-2.383-3.5-4.708-5.36-6.97l-2.68 2.192Zm10 13.91a128.97 128.97 0 0 1 4.29 7.416l3.05-1.631a141.221 141.221 0 0 0-4.4-7.61l-2.94 1.826Zm8.09 15.094a128.56 128.56 0 0 1 3.29 7.913l3.24-1.217a135.041 135.041 0 0 0-3.39-8.124l-3.14 1.427Zm6.04 16.024c.83 2.721 1.56 5.479 2.22 8.272l3.36-.782c-.66-2.866-1.42-5.698-2.28-8.492l-3.3 1.002Zm3.88 16.677c.46 2.802.83 5.635 1.1 8.496l3.45-.335a138.76 138.76 0 0 0-1.14-8.721l-3.41.56Zm1.66 17.039c.04 1.426.07 2.858.07 4.293h3.46c0-1.473-.03-2.942-.08-4.404l-3.45.111Zm.07 4.293c0 1.437-.03 2.868-.07 4.294l3.45.111c.05-1.462.08-2.931.08-4.405h-3.46Zm-.63 12.837c-.27 2.86-.64 5.694-1.1 8.496l3.41.56c.47-2.878.85-5.786 1.14-8.721l-3.45-.335Zm-2.76 16.902c-.66 2.792-1.39 5.55-2.22 8.271l3.3 1.002c.86-2.793 1.62-5.626 2.28-8.493l-3.36-.78Zm-4.97 16.383a129.407 129.407 0 0 1-3.29 7.913l3.14 1.427c1.22-2.662 2.34-5.372 3.39-8.124l-3.24-1.216Zm-7.09 15.591a129.074 129.074 0 0 1-4.29 7.415l2.94 1.825a140.85 140.85 0 0 0 4.4-7.61l-3.05-1.63Zm-9.06 14.533a124.44 124.44 0 0 1-5.23 6.793l2.68 2.192a134.24 134.24 0 0 0 5.36-6.971l-2.81-2.014Zm-10.88 13.232a123.844 123.844 0 0 1-6.07 6.057l2.38 2.52c2.13-2.004 4.2-4.077 6.21-6.216l-2.52-2.361Zm-12.5 11.708a139.286 139.286 0 0 1-6.8 5.22l2.02 2.805c2.38-1.71 4.7-3.498 6.97-5.356l-2.19-2.669Zm-13.93 9.986a126.094 126.094 0 0 1-7.42 4.29l1.64 3.043c2.58-1.386 5.12-2.854 7.61-4.402l-1.83-2.931Zm-15.1 8.083c-2.6 1.177-5.24 2.272-7.92 3.281l1.22 3.233c2.75-1.036 5.47-2.161 8.13-3.369l-1.43-3.145Zm-16.04 6.034c-2.72.824-5.48 1.563-8.27 2.211l.77 3.364c2.87-.665 5.71-1.423 8.51-2.269l-1.01-3.306Zm-16.69 3.874c-2.8.46-5.63.83-8.5 1.108l.34 3.438c2.93-.286 5.84-.666 8.73-1.138l-.57-3.408Zm-17.05 1.661c-1.43.046-2.86.069-4.3.069v3.454c1.48 0 2.95-.024 4.41-.071l-.11-3.452Zm-4.3.069h-4.31v3.454h4.31v-3.454Zm-12.95 0h-8.63v3.454h8.63v-3.454Zm-17.26 0h-8.63v3.454h8.63v-3.454Zm-17.27 0h-8.64v3.454h8.64v-3.454Zm-17.26 0h-8.64v3.454h8.64v-3.454Zm-17.28 0h-8.63v3.454h8.63v-3.454Zm-17.26 0h-8.63v3.454h8.63v-3.454Zm-17.27 0h-8.62v3.454h8.62v-3.454Zm-17.26 0h-8.64v3.454h8.64v-3.454Zm-17.28 0h-8.62v3.454h8.62v-3.454Zm-17.26 0h-8.63v3.454h8.63v-3.454Zm-17.26 0h-8.63v3.454h8.63v-3.454Zm-17.27 0h-8.64v3.454h8.64v-3.454Zm-17.26 0h-8.64v3.454h8.64v-3.454Zm-17.28 0h-8.63v3.454h8.63v-3.454Zm-17.26 0h-8.63v3.454h8.63v-3.454Zm-17.27 0h-8.63v3.454h8.63v-3.454Zm-17.26 0h-8.64v3.454h8.64v-3.454Zm-17.27 0h-8.63v3.454h8.63v-3.454Zm-17.27 0h-8.63v3.454h8.63v-3.454Zm-17.27 0h-8.63v3.454h8.63v-3.454Zm-17.26 0h-8.64v3.454h8.64v-3.454Zm-17.27 0h-8.63v3.454h8.63v-3.454Zm-17.27 0h-8.63v3.454h8.63v-3.454Zm-17.26 0h-8.64v3.454h8.64v-3.454Zm-17.27 0h-8.63v3.454h8.63v-3.454Zm-17.27 0h-8.63v3.454h8.63v-3.454Zm-17.26 0h-8.64v3.454h8.64v-3.454Zm-17.27 0h-8.63v3.454h8.63v-3.454Zm-17.27 0h-8.63v3.454h8.63v-3.454Zm-17.26 0h-8.64v3.454h8.64v-3.454Zm-17.27 0h-8.63v3.454h8.63v-3.454Zm-17.27 0h-8.629v3.454h8.629v-3.454Zm-17.264 0h-8.633v3.454h8.633v-3.454Zm-17.266 0h-8.633v3.454h8.633v-3.454Zm-17.267 0h-8.633v3.454h8.633v-3.454Zm-17.266 0h-8.633v3.454h8.633v-3.454Zm-17.267 0h-8.634v3.454h8.634v-3.454Zm-17.267 0h-8.633v3.454h8.633v-3.454Zm-17.266 0h-8.635v3.454h8.635v-3.454Zm-17.268 0h-8.633v3.454h8.633v-3.454Zm-17.266 0h-8.633v3.454h8.633v-3.454Zm-17.267 0h-8.633v3.454h8.633v-3.454Zm-17.267 0h-8.633v3.454h8.633v-3.454Zm-17.266 0h-8.634v3.454h8.634v-3.454Zm-17.267 0h-8.633v3.454h8.633v-3.454Zm-17.266 0h-8.635v3.454h8.635v-3.454Zm-17.268 0h-8.633v3.454h8.633v-3.454Zm-17.266 0h-8.633v3.454h8.633v-3.454Zm-17.268 0h-8.633v3.454h8.633v-3.454Zm-17.266 0h-8.633v3.454h8.633v-3.454Zm-17.267 0h-8.633v3.454h8.633v-3.454Zm-17.266 0h-8.634v3.454h8.634v-3.454Zm-17.267 0h-8.634v3.454h8.634v-3.454Zm-17.267 0h-8.633v3.454h8.633v-3.454Zm-17.266 0h-8.635v3.454h8.635v-3.454Zm-17.268 0h-8.633v3.454h8.633v-3.454Zm-17.266 0h-8.633v3.454h8.633v-3.454Zm-17.268 0h-8.633v3.454h8.633v-3.454Zm-17.266 0h-8.633v3.454h8.633v-3.454Zm-17.267 0h-8.633v3.454h8.633v-3.454Zm-17.266 0h-8.633v3.454h8.633v-3.454Zm-17.267 0h-8.634v3.454h8.634v-3.454Zm-17.267 0h-8.633v3.454h8.633v-3.454Zm-17.266 0h-8.633v3.454h8.633v-3.454Zm-17.268 0h-8.633v3.454h8.633v-3.454Zm-17.266 0h-8.633v3.454h8.633v-3.454Zm-17.267 0h-8.633v3.454h8.633v-3.454Zm-17.267 0h-8.633v3.454h8.633v-3.454Zm-17.266 0h-8.634v3.454h8.634v-3.454Zm-17.267 0h-8.633v3.454h8.633v-3.454Zm-17.266 0h-8.635v3.454h8.635v-3.454Zm-17.268 0h-8.633v3.454h8.633v-3.454Zm-17.266 0h-8.633v3.454h8.633v-3.454Zm-17.268 0h-8.633v3.454h8.633v-3.454Zm-17.266 0h-8.633v3.454h8.633v-3.454Zm-17.267 0h-8.633v3.454h8.633v-3.454Zm-17.266 0h-8.634v3.454h8.634v-3.454Zm-17.267 0h-8.634v3.454h8.634v-3.454Zm-17.267 0h-8.633v3.454h8.633v-3.454Zm-17.268 0h-8.633v3.454h8.633v-3.454Zm-17.266 0h-8.633v3.454h8.633v-3.454Zm-17.267 0h-4.318v3.454h4.318v-3.454Zm-4.318 0c-1.488 0-2.971.024-4.448.071l.112 3.452c1.44-.046 2.886-.069 4.336-.069v-3.454Zm-13.3.643a136.23 136.23 0 0 0-8.807 1.147l.559 3.409c2.831-.463 5.693-.838 8.582-1.118l-.334-3.438Zm-17.519 2.871a134.718 134.718 0 0 0-8.575 2.29l1.002 3.304a132.057 132.057 0 0 1 8.355-2.231l-.782-3.363Zm-16.984 5.141a134.61 134.61 0 0 0-8.203 3.4l1.428 3.144a132.136 132.136 0 0 1 7.993-3.312l-1.218-3.232Zm-16.162 7.329a135.262 135.262 0 0 0-7.686 4.443l1.828 2.931a132.45 132.45 0 0 1 7.49-4.329l-1.632-3.045Zm-15.064 9.378a136.114 136.114 0 0 0-7.04 5.406l2.195 2.668a132.225 132.225 0 0 1 6.86-5.267l-2.015-2.807Zm-13.712 11.257a136.555 136.555 0 0 0-6.278 6.274l2.522 2.361a132.91 132.91 0 0 1 6.12-6.113l-2.364-2.522Zm-12.134 12.941a136.204 136.204 0 0 0-5.41 7.034l2.808 2.014a133.155 133.155 0 0 1 5.272-6.856l-2.67-2.192Zm-10.349 14.407a134.919 134.919 0 0 0-4.447 7.679l3.047 1.631a132 132 0 0 1 4.333-7.485l-2.933-1.825Zm-8.379 15.631a135.253 135.253 0 0 0-3.402 8.197l3.235 1.218a131.422 131.422 0 0 1 3.314-7.987l-3.147-1.428Zm-6.255 16.6a134.352 134.352 0 0 0-2.293 8.569l3.367.781c.655-2.818 1.4-5.602 2.233-8.348l-3.307-1.002Zm-4.017 17.274c-.476 2.903-.86 5.838-1.148 8.8l3.44.334c.281-2.886.655-5.746 1.12-8.575l-3.411-.559Zm-1.72 17.647A137.81 137.81 0 0 0 0 417.691h3.456c0-1.45.024-2.894.07-4.332l-3.454-.111ZM0 417.691c0 1.488.024 2.969.072 4.445l3.454-.111c-.046-1.44-.07-2.884-.07-4.334H0Zm.644 13.291c.288 2.961.672 5.896 1.148 8.8l3.411-.56a131.846 131.846 0 0 1-1.12-8.575l-3.44.335Zm2.872 17.505c.673 2.893 1.438 5.75 2.293 8.568l3.307-1a130.97 130.97 0 0 1-2.233-8.35l-3.367.782Zm5.146 16.971a134.715 134.715 0 0 0 3.402 8.197l3.147-1.428a131.129 131.129 0 0 1-3.314-7.986l-3.235 1.217Zm7.334 16.15c1.4 2.611 2.884 5.173 4.447 7.68l2.933-1.827a132.649 132.649 0 0 1-4.333-7.483l-3.047 1.63Zm9.386 15.051a136.261 136.261 0 0 0 5.41 7.034l2.67-2.192a132.294 132.294 0 0 1-5.272-6.856l-2.808 2.014Zm11.266 13.702a136.483 136.483 0 0 0 6.278 6.273l2.363-2.52a132.256 132.256 0 0 1-6.119-6.115l-2.522 2.362Zm12.95 12.125a136.177 136.177 0 0 0 7.04 5.405l2.016-2.805a132.82 132.82 0 0 1-6.861-5.269l-2.194 2.669Zm14.418 10.341a135.315 135.315 0 0 0 7.686 4.442l1.632-3.043a132.427 132.427 0 0 1-7.49-4.33l-1.828 2.931Zm15.645 8.372a133.914 133.914 0 0 0 8.203 3.399l1.218-3.232a130.903 130.903 0 0 1-7.993-3.312l-1.428 3.145Zm16.612 6.251c2.82.854 5.68 1.619 8.575 2.291l.782-3.365c-2.821-.654-5.607-1.4-8.355-2.231l-1.002 3.305Zm17.287 4.013c2.906.475 5.842.859 8.806 1.147l.335-3.436a132.86 132.86 0 0 1-8.582-1.119l-.559 3.408Zm17.659 1.719c1.477.048 2.96.072 4.448.072V549.8c-1.45 0-2.896-.023-4.336-.07l-.112 3.452Zm4.448.072h4.302V549.8h-4.302v3.454Zm12.904 0h8.603V549.8h-8.603v3.454Zm17.204 0h8.603V549.8h-8.603v3.454Zm17.205 0h8.603V549.8h-8.603v3.454Zm17.204 0h8.603V549.8h-8.603v3.454Zm17.205 0h8.603V549.8h-8.603v3.454Zm17.205 0h8.602V549.8h-8.602v3.454Zm17.204 0h8.603V549.8h-8.603v3.454Zm17.205 0h8.603V549.8h-8.603v3.454Zm17.204 0h8.603V549.8h-8.603v3.454Zm17.206 0h8.602V549.8h-8.602v3.454Zm17.205 0h8.601V549.8h-8.601v3.454Zm17.204 0h8.602V549.8h-8.602v3.454Zm17.205 0h8.602V549.8h-8.602v3.454Zm17.204 0h8.602V549.8h-8.602v3.454Zm17.205 0h8.602V549.8h-8.602v3.454Zm17.205 0h8.601V549.8h-8.601v3.454Zm17.204 0h8.602V549.8h-8.602v3.454Zm17.205 0h8.601V549.8h-8.601v3.454Zm17.204 0h8.602V549.8h-8.602v3.454Zm17.205 0h8.603V549.8h-8.603v3.454Zm17.205 0h8.603V549.8h-8.603v3.454Zm17.204 0h8.603V549.8h-8.603v3.454Zm17.205 0h8.603V549.8h-8.603v3.454Zm17.204 0h8.603V549.8h-8.603v3.454Zm17.205 0h8.603V549.8h-8.603v3.454Zm17.205 0h8.602V549.8h-8.602v3.454Zm17.205 0h8.602V549.8h-8.602v3.454Zm17.205 0h8.602V549.8h-8.602v3.454Zm17.205 0h8.601V549.8h-8.601v3.454Zm17.204 0h8.602V549.8h-8.602v3.454Zm17.205 0h8.601V549.8h-8.601v3.454Zm17.204 0h8.602V549.8h-8.602v3.454Zm17.205 0h8.603V549.8h-8.603v3.454Zm17.204 0h8.603V549.8h-8.603v3.454Zm17.205 0h8.603V549.8h-8.603v3.454Zm17.205 0h8.603V549.8h-8.603v3.454Zm17.204 0h8.603V549.8h-8.603v3.454Zm17.205 0h8.603V549.8h-8.603v3.454Zm17.204 0h8.603V549.8h-8.603v3.454Zm17.206 0h8.602V549.8h-8.602v3.454Zm17.205 0h8.601V549.8h-8.601v3.454Zm17.204 0h8.602V549.8h-8.602v3.454Zm17.205 0h8.602V549.8h-8.602v3.454Zm17.205 0h8.601V549.8h-8.601v3.454Zm17.204 0h8.602V549.8h-8.602v3.454Zm17.205 0h8.603V549.8h-8.603v3.454Zm17.204 0h8.603V549.8h-8.603v3.454Zm17.205 0h8.603V549.8h-8.603v3.454Zm17.205 0h8.602V549.8h-8.602v3.454Zm17.204 0h8.601V549.8h-8.601v3.454Zm17.201 0h8.61V549.8h-8.61v3.454Zm17.21 0h8.6V549.8h-8.6v3.454Zm17.2 0h8.61V549.8h-8.61v3.454Zm17.21 0h8.6V549.8h-8.6v3.454Zm17.2 0h8.61V549.8h-8.61v3.454Zm17.21 0h8.6V549.8h-8.6v3.454Zm17.2 0h8.6V549.8h-8.6v3.454Zm17.21 0h8.6V549.8h-8.6v3.454Zm17.2 0h8.6V549.8h-8.6v3.454Zm17.21 0h8.6V549.8h-8.6v3.454Zm17.2 0h8.6V549.8h-8.6v3.454Zm17.21 0h8.6V549.8h-8.6v3.454Zm17.2 0h8.6V549.8h-8.6v3.454Zm17.2 0h8.61V549.8h-8.61v3.454Zm17.21 0h8.6V549.8h-8.6v3.454Zm17.2 0h8.61V549.8h-8.61v3.454Zm17.21 0h8.6V549.8h-8.6v3.454Zm17.2 0h8.61V549.8h-8.61v3.454Zm17.21 0h8.6V549.8h-8.6v3.454Zm17.21 0h8.59V549.8h-8.59v3.454Zm17.19 0h8.61V549.8h-8.61v3.454Zm17.21 0h8.61V549.8h-8.61v3.454Zm17.21 0h8.6V549.8h-8.6v3.454Zm17.21 0h8.59V549.8h-8.59v3.454Zm17.19 0h8.61V549.8h-8.61v3.454Zm17.21 0h8.6V549.8h-8.6v3.454Zm17.21 0h8.6V549.8h-8.6v3.454Zm17.19 0h8.62V549.8h-8.62v3.454Zm17.21 0h4.3V549.8h-4.3v3.454Z" fill="#190C39"/><path d="m460.454 17.89-28.966 16.98V.91l28.966 16.98ZM459.455 552.756l-28.966 16.48v-32.961l28.966 16.481ZM1234.54 17.89l-30.97 16.98V.91l30.97 16.98ZM1229.54 552.756l-28.96 16.48v-32.961l28.96 16.481ZM848.993 17.89l-28.966 16.98V.91l28.966 16.98ZM845.997 552.756l-28.966 16.48v-32.961l28.966 16.481ZM1573.13 17.89l-28.96 16.98V.91l28.96 16.98ZM791.598 290.977c3.493-.715 9.175-.569 16.127-4.511 9.673-5.494 14.735-20.413 19.941-27.055 5.207-6.643 19.308-15.363 24.926-30.603-.02 1.925-.581 9.908-3.967 20.386-3.937 12.219-13.236 18.887-13.236 18.887s4.183-.456 8.055-5.16c-3.941 15.137-20.768 22.596-20.768 22.596s10.096-2.823 11.581-4.161c-1.287 8.802-14.335 14.242-14.335 14.242s17.897.494 35.943-9.122c-.641 1.762-3.385 5.178-8.577 9.494 7.044-.845 14.307-2.866 20.046-7.08-.455 2.024-13.816 20.902-39.105 22.665-20.288 1.411-32.038-10.514-32.038-10.514a9.043 9.043 0 0 0-6.278-2.635c-2.787 0-4.597.16-4.597.16s.155-6.332 6.295-7.589h-.013Zm18.528-3.895c9.29-5.036 14.386-19.109 19.47-25.33 4.376-5.371 12.879-11.964 19.342-22.918-3.872 5.898-16.018 16.577-20.965 22.893-4.947 6.318-9.756 20.484-18.95 25.706a64.74 64.74 0 0 1-5.326 2.725 68.504 68.504 0 0 0 6.443-3.076h-.014Zm-18.998 8.441c.833-.238 1.291-1.011 1.176-1.407-.116-.398-.883-.531-1.717-.291-.832.239-1.417.752-1.301 1.15.115.397 1.01.78 1.842.548Z" fill="#190C39"/></svg>